# xmcd
# 
# Track frame offsets:
#     150
#     24910
#     39456
#     80436
#     107272
#     122911
#     162937
#     187669
#     214325
#     244153
#     272927
# 
# Disc length: 4218
# 
# Revision: 4
# Processed by: cddbd v1.5.2PL0 Copyright (c) Steve Scherf et al.
# Submitted via: fre:ac v1.0.31
# 
DISCID=8a10780b
DTITLE=Jimi Hendrix - Songs For Groovy Children Disc 1
DYEAR=2019
DGENRE=Rock/Pop
TTITLE0=Power Of Soul
TTITLE1=Lover Man
TTITLE2=Hear My Train A Comin'
TTITLE3=Changes
TTITLE4=Izabella
TTITLE5=Machine Gun
TTITLE6=Stop
TTITLE7=Ezy Ryder
TTITLE8=Bleeding Heart
TTITLE9=Earth Blues
TTITLE10=Burning Desire
EXTD=
EXTT0=
EXTT1=
EXTT2=
EXTT3=
EXTT4=
EXTT5=
EXTT6=
EXTT7=
EXTT8=
EXTT9=
EXTT10=
PLAYORDER=
